<svg xmlns="http://www.w3.org/2000/svg" xmlns:xlink="http://www.w3.org/1999/xlink" xmlns:lucid="lucid" width="1676.93" height="1230.04"><g transform="translate(212.83234534042958 -474.1780974590947)" lucid:page-tab-id="0_0"><path d="M-500 0h2000v2000H-500z" fill="#fff"/><path d="M5.26 1313.5a6 6 0 0 1 6-6H395a6 6 0 0 1 6 6v383.72a6 6 0 0 1-6 6H11.26a6 6 0 0 1-6-6z" stroke="#3a414a" stroke-width="2" fill="#b8f5ed"/><use xlink:href="#a" transform="matrix(1,0,0,1,10.262456193405114,1312.4867853620153) translate(185.90364583333334 200.95746527777777)"/><path d="M5.26 818.5a6 6 0 0 1 6-6H395a6 6 0 0 1 6 6v383.74a6 6 0 0 1-6 6H11.26a6 6 0 0 1-6-6z" stroke="#3a414a" stroke-width="2" fill="#c3f7c8"/><use xlink:href="#b" transform="matrix(1,0,0,1,10.262456193405114,817.5077807468188) translate(185.87109375 200.95746527777777)"/><path d="M-209.83 818.5a6 6 0 0 1 6-6h106.66a6 6 0 0 1 6 6v383.74a6 6 0 0 1-6 6h-106.66a6 6 0 0 1-6-6z" stroke="#3a414a" stroke-width="2" fill="#fff7a1"/><use xlink:href="#c" transform="matrix(1,0,0,1,-204.83234534042958,817.5077807468188) translate(46.00390625 200.95746527777777)"/><path d="M11.26 775.6a6 6 0 0 1-6-6V662.95a6 6 0 0 1 6-6H395a6 6 0 0 1 6 6V769.6a6 6 0 0 1-6 6z" stroke="#3a414a" stroke-width="2" fill="#cfe4ff"/><use xlink:href="#d" transform="matrix(6.123233995736766e-17,-1,1,6.123233995736766e-17,10.262456193405,770.6097599134856) translate(47.03472222222222 200.95746527777777)"/><path d="M-209.83 857.23a6 6 0 0 1 6-6h106.66a6 6 0 0 1 6 6v46.4a6 6 0 0 1-6 6h-106.66a6 6 0 0 1-6-6z" stroke="#1071e5" stroke-width="6" fill="#fff7a1"/><use xlink:href="#e" transform="matrix(1,0,0,1,-204.83234534042958,856.2265673591792) translate(28.165364583333336 32.62934027777778)"/><path d="M-209.83 480.18a6 6 0 0 1 6-6H445.1a6 6 0 0 1 6 6v89.43a6 6 0 0 1-6 6h-648.93a6 6 0 0 1-6-6z" fill="none"/><use xlink:href="#f" transform="matrix(1,0,0,1,-204.83234534042958,479.1780974590947) translate(0 21.818142361111114)"/><use xlink:href="#g" transform="matrix(1,0,0,1,-204.83234534042958,479.1780974590947) translate(83.3984375 21.818142361111114)"/><use xlink:href="#h" transform="matrix(1,0,0,1,-204.83234534042958,479.1780974590947) translate(154.48133680555554 21.818142361111114)"/><use xlink:href="#i" transform="matrix(1,0,0,1,-204.83234534042958,479.1780974590947) translate(187.109375 21.818142361111114)"/><use xlink:href="#j" transform="matrix(1,0,0,1,-204.83234534042958,479.1780974590947) translate(289.1384548611111 21.818142361111114)"/><use xlink:href="#k" transform="matrix(1,0,0,1,-204.83234534042958,479.1780974590947) translate(0 54.083767361111114)"/><use xlink:href="#l" transform="matrix(1,0,0,1,-204.83234534042958,479.1780974590947) translate(0 86.34939236111111)"/><use xlink:href="#m" transform="matrix(1,0,0,1,-204.83234534042958,479.1780974590947) translate(91.27604166666666 86.34939236111111)"/><use xlink:href="#n" transform="matrix(1,0,0,1,-204.83234534042958,479.1780974590947) translate(146.64713541666666 86.34939236111111)"/><use xlink:href="#o" transform="matrix(1,0,0,1,-204.83234534042958,479.1780974590947) translate(211.9683159722222 86.34939236111111)"/><use xlink:href="#p" transform="matrix(1,0,0,1,-204.83234534042958,479.1780974590947) translate(290.8962673611111 86.34939236111111)"/><use xlink:href="#q" transform="matrix(1,0,0,1,-204.83234534042958,479.1780974590947) translate(379.4053819444444 86.34939236111111)"/><use xlink:href="#r" transform="matrix(1,0,0,1,-204.83234534042958,479.1780974590947) translate(482.29166666666663 86.34939236111111)"/><path d="M11.26 775.6a6 6 0 0 1-6-6V662.95a6 6 0 0 1 6-6h76.7a6 6 0 0 1 6 6V769.6a6 6 0 0 1-6 6z" stroke="#1071e5" stroke-width="6" fill="#cfe4ff"/><use xlink:href="#s" transform="matrix(6.123233995736766e-17,-1,1,6.123233995736766e-17,10.26245619340466,770.6097599134855) translate(32.36458333333333 47.44965277777778)"/><path d="M5.26 857.23a6 6 0 0 1 6-6h76.7a6 6 0 0 1 6 6v46.4a6 6 0 0 1-6 6h-76.7a6 6 0 0 1-6-6z" stroke="#1071e5" stroke-width="6" fill="#c3f7c8"/><use xlink:href="#t" transform="matrix(1,0,0,1,10.262456193404887,856.2265673591792) translate(-0.13758680555555003 32.583767361111114)"/><path d="M5.26 1352.2a6 6 0 0 1 6-6h76.7a6 6 0 0 1 6 6v46.42a6 6 0 0 1-6 6h-76.7a6 6 0 0 1-6-6z" stroke="#1071e5" stroke-width="6" fill="#b8f5ed"/><use xlink:href="#u" transform="matrix(1,0,0,1,10.262456193404887,1351.2055719743757) translate(-0.10503472222222143 32.583767361111114)"/><path d="M702.38 775.6a6 6 0 0 1-6-6V662.95a6 6 0 0 1 6-6h383.73a6 6 0 0 1 6 6V769.6a6 6 0 0 1-6 6z" stroke="#3a414a" stroke-width="2" fill="#ffd9d9"/><use xlink:href="#v" transform="matrix(6.123233995736766e-17,-1,1,6.123233995736766e-17,701.3751374737564,770.6097599134855) translate(46.833984375 200.95746527777777)"/><path d="M696.38 818.5a6 6 0 0 1 6-6h383.73a6 6 0 0 1 6 6v383.74a6 6 0 0 1-6 6H702.4a6 6 0 0 1-6-6z" stroke="#3a414a" stroke-width="2" fill="url(#w)"/><use xlink:href="#x" transform="matrix(1,0,0,1,701.3751374737565,817.5077807468188) translate(179.10026041666666 200.95746527777777)"/><path d="M696.38 857.23a6 6 0 0 1 6-6h76.7a6 6 0 0 1 6 6v46.4a6 6 0 0 1-6 6h-76.7a6 6 0 0 1-6-6z" stroke="#1071e5" stroke-width="6" fill="url(#y)"/><use xlink:href="#z" transform="matrix(1,0,0,1,701.3751374737549,856.2265673591792) translate(-6.908420138888886 32.583767361111114)"/><path d="M481.28 818.5a6 6 0 0 1 6-6h106.67a6 6 0 0 1 6 6v383.74a6 6 0 0 1-6 6H487.28a6 6 0 0 1-6-6z" stroke="#3a414a" stroke-width="2" fill="url(#A)"/><use xlink:href="#B" transform="matrix(1,0,0,1,486.2803359399222,817.5077807468188) translate(39.200520833333336 200.95746527777777)"/><path d="M481.28 857.23a6 6 0 0 1 6-6h106.67a6 6 0 0 1 6 6v46.4a6 6 0 0 1-6 6H487.28a6 6 0 0 1-6-6z" stroke="#1071e5" stroke-width="6" fill="url(#C)"/><use xlink:href="#D" transform="matrix(1,0,0,1,486.2803359399222,856.2265673591792) translate(21.36197916666667 32.62934027777778)"/><path d="M702.38 775.6a6 6 0 0 1-6-6V662.95a6 6 0 0 1 6-6h76.7a6 6 0 0 1 6 6V769.6a6 6 0 0 1-6 6z" stroke="#1071e5" stroke-width="6" fill="#ffd9d9"/><use xlink:href="#E" transform="matrix(6.123233995736766e-17,-1,1,6.123233995736766e-17,701.3751374737567,770.6097599134855) translate(32.163845486111114 47.44965277777778)"/><path d="M50.1 1326.82h-.96v-58.8h.95zm0-80.32h-.96V913.14h.95z" stroke="#3a414a" stroke-width=".05" fill="#3a414a"/><path d="M50.1 913.15h-.96v-.5h.95z" fill="#3a414a"/><path stroke="#3a414a" stroke-width=".05" fill="#3a414a"/><path d="M49.62 1341.6l-4.64-14.28h9.27z" fill="#3a414a"/><path d="M49.62 1343.13l-5.3-16.28h10.6zm-3.98-15.33l3.98 12.25 3.98-12.25z" stroke="#3a414a" stroke-width=".05" fill="#3a414a"/><use xlink:href="#F" transform="matrix(1,0,0,1,-80.69612117346281,1246.4985419200084) translate(0.0049999999999954525 17.22222222222222)"/><path d="M501.7 1313.13a5.64 5.64 0 0 1 5.65-5.64 5.64 5.64 0 0 1 5.64 5.63v384.45a5.64 5.64 0 0 1-5.65 5.64 5.64 5.64 0 0 1-5.64-5.64z" stroke="#3a414a" stroke-width="2" fill="#dfe3e8"/><path d="M501.7 1351.85a5.64 5.64 0 0 1 5.65-5.64 5.64 5.64 0 0 1 5.64 5.65v47.12a5.64 5.64 0 0 1-5.65 5.65 5.64 5.64 0 0 1-5.64-5.65z" stroke="#1071e5" stroke-width="6" fill="#dfe3e8"/><use xlink:href="#G" transform="matrix(1,0,0,1,506.70626479004113,1351.2055719743757) translate(-44.1171875 32.583767361111114)"/><path d="M696.38 1313.5a6 6 0 0 1 6-6h383.73a6 6 0 0 1 6 6v383.72a6 6 0 0 1-6 6H702.4a6 6 0 0 1-6-6z" stroke="#3a414a" stroke-width="2" fill="url(#H)"/><use xlink:href="#I" transform="matrix(1,0,0,1,701.3751374737556,1312.4867853620153) translate(179.06770833333334 200.95746527777777)"/><path d="M696.38 1352.2a6 6 0 0 1 6-6h76.7a6 6 0 0 1 6 6v46.42a6 6 0 0 1-6 6h-76.7a6 6 0 0 1-6-6z" stroke="#1071e5" stroke-width="6" fill="url(#J)"/><use xlink:href="#K" transform="matrix(1,0,0,1,701.3751374737549,1351.2055719743757) translate(-6.940972222222214 32.583767361111114)"/><path d="M97.47 1375.4h33.5a6 6 0 0 1 6 6v83.4a6 6 0 0 0 6 6h504.4a6 6 0 0 0 6-6v-63.97a6 6 0 0 1 6-6H677" stroke="#3a414a" fill="none"/><path d="M97.48 1375.9h-.5v-.96h.5z" stroke="#3a414a" stroke-width=".05" fill="#3a414a"/><path d="M691.76 1394.83l-14.27 4.63v-9.27z" stroke="#3a414a" fill="#3a414a"/><path d="M516.5 1375.4H677" stroke="#3a414a" fill="none"/><path d="M516.5 1375.9h-.5v-.96h.5z" stroke="#3a414a" stroke-width=".05" fill="#3a414a"/><path d="M691.76 1375.4l-14.27 4.65v-9.27z" stroke="#3a414a" fill="#3a414a"/><path d="M788.58 880.43h33.5a6 6 0 0 1 6 6v323.7a6 6 0 0 1-6 6h-162.7a6 6 0 0 0-6 6v128.97a6 6 0 0 0 6 6h17.6" stroke="#3a414a" fill="none"/><path d="M788.6 880.9h-.52v-.94h.52z" stroke="#3a414a" stroke-width=".05" fill="#3a414a"/><path d="M691.76 1357.1l-14.27 4.64v-9.27z" stroke="#3a414a" fill="#3a414a"/><path d="M1342.43 818.5a6 6 0 0 1 6-6h106.67a6 6 0 0 1 6 6v383.74a6 6 0 0 1-6 6h-106.66a6 6 0 0 1-6-6z" stroke="#3a414a" stroke-width="2" fill="url(#L)"/><use xlink:href="#M" transform="matrix(1,0,0,1,1347.4353492913906,817.5077807468188) translate(-0.27973090277777857 184.95095486111111)"/><use xlink:href="#N" transform="matrix(1,0,0,1,1347.4353492913906,817.5077807468188) translate(13.712239583333336 217.21657986111111)"/><path d="M1342.43 864.1a6 6 0 0 1 6-6h106.67a6 6 0 0 1 6 6v46.4a6 6 0 0 1-6 6h-106.66a6 6 0 0 1-6-6z" stroke="#1071e5" stroke-width="6" fill="url(#O)"/><use xlink:href="#P" transform="matrix(1,0,0,1,1347.4353492913906,863.097389939725) translate(21.36197916666667 32.62934027777778)"/><path d="M788.58 1375.4h506.85a6 6 0 0 0 6-6V891.78a6 6 0 0 1 6-6h17.62" stroke="#3a414a" fill="none"/><path d="M788.6 1375.9h-.52v-.96h.52z" stroke="#3a414a" stroke-width=".05" fill="#3a414a"/><path d="M1339.82 885.77l-14.27 4.64v-9.26z" stroke="#3a414a" fill="#3a414a"/><path d="M51.97 655.44v-33.5a6 6 0 0 1 6-6h1337.8a6 6 0 0 1 6 6V838.7" stroke="#3a414a" fill="none"/><path d="M52.44 655.94h-.95v-.5h.94z" stroke="#3a414a" stroke-width=".05" fill="#3a414a"/><path d="M1401.77 853.48l-4.64-14.27h9.27z" stroke="#3a414a" fill="#3a414a"/><path d="M100.97 716.28h70.95" stroke="#6db1ff" stroke-width="8" fill="none"/><path d="M101.07 720.25h-4.1v-7.95h4.1z" stroke="#6db1ff" stroke-width=".05" fill="#6db1ff"/><path d="M190.2 716.28l-14.28 4.63v-9.26z" stroke="#6db1ff" stroke-width="8" fill="#6db1ff"/><path d="M792.08 716.28h70.95" stroke="#6db1ff" stroke-width="8" fill="none"/><path d="M792.2 720.25h-4.12v-7.95h4.1z" stroke="#6db1ff" stroke-width=".05" fill="#6db1ff"/><path d="M881.3 716.28l-14.27 4.63v-9.26z" stroke="#6db1ff" stroke-width="8" fill="#6db1ff"/><defs><path d="M180 0v-1490h510c348 0 508 209 508 474 0 266-160 477-507 477H370V0H180zm190-706h312c236 0 327-133 327-310 0-176-91-307-329-307H370v617" id="Q"/><use transform="matrix(0.010850694444444444,0,0,0.010850694444444444,0,0)" xlink:href="#Q" id="a"/><path d="M657 26c-323 0-524-166-541-416h195c15 169 171 246 346 246 202 0 356-106 356-265 5-203-294-238-475-293-239-73-380-191-380-389 0-252 224-419 512-419 294 0 499 171 508 396H992c-17-145-151-228-328-228-193 0-321 102-321 242 0 156 175 211 284 241l149 41c160 44 422 134 422 412 0 244-197 432-541 432" id="R"/><use transform="matrix(0.010850694444444444,0,0,0.010850694444444444,0,0)" xlink:href="#R" id="b"/><path d="M784 20c-382 0-662-292-662-764 0-473 280-766 662-766s660 293 660 766c0 282-99 499-260 629l192 255h-198L1049-33C969 2 880 20 784 20zm-62-486h198l156 205c112-98 183-261 183-483 0-383-209-590-475-590-268 0-477 208-477 590 0 380 209 588 477 588 54 0 106-9 154-25" id="S"/><use transform="matrix(0.010850694444444444,0,0,0.010850694444444444,0,0)" xlink:href="#S" id="c"/><path d="M180 0v-1490h190c0 262 1 526-3 784 217-279 467-523 702-784h249L716-845 1319 0h-225L585-716 370-489V0H180" id="T"/><use transform="matrix(0.010850694444444444,0,0,0.010850694444444444,0,0)" xlink:href="#T" id="d"/><path d="M226 279v-1860h398v153H398V126h226v153H226" id="U"/><path d="M158 0v-1118h175l1 205c55-151 181-225 313-225 147 0 245 90 285 228 53-141 190-228 352-228 194 0 352 125 352 384V0h-181v-749c0-161-105-225-225-225-151 0-243 103-243 244V0H807v-767c0-124-93-207-219-207-131 0-250 92-250 270V0H158" id="V"/><path d="M123 279V126h226v-1554H123v-153h398V279H123" id="W"/><g id="e"><use transform="matrix(0.010850694444444444,0,0,0.010850694444444444,0,0)" xlink:href="#S"/><use transform="matrix(0.010850694444444444,0,0,0.010850694444444444,16.9921875,0)" xlink:href="#U"/><use transform="matrix(0.010850694444444444,0,0,0.010850694444444444,25.09765625,0)" xlink:href="#V"/><use transform="matrix(0.010850694444444444,0,0,0.010850694444444444,44.56380208333333,0)" xlink:href="#W"/></g><path d="M180 0v-1490h190v1322h690V0H180" id="X"/><path d="M471 26C259 26 90-98 90-318c0-256 228-303 435-329 202-27 287-16 287-108 0-139-79-219-234-219-161 0-248 86-283 164l-173-57c86-203 278-265 451-265 150 0 419 46 419 395V0H815v-152h-12C765-73 660 26 471 26zm31-159c199 0 310-134 310-271v-155c-30 35-226 55-295 64-131 17-246 59-246 186 0 116 97 176 231 176" id="Y"/><path d="M537 14c-226 0-379-139-379-422v-710h180v695c0 172 97 275 253 275 160 0 281-109 281-300v-670h181V0H879v-209C806-46 684 14 537 14" id="Z"/><path d="M338-670V0H158v-1118h173l1 207c72-158 192-221 342-221 226 0 378 139 378 422V0H872v-695c0-172-96-275-252-275-161 0-282 109-282 300" id="aa"/><path d="M613 24c-304 0-509-231-509-576 0-350 205-580 509-580 216 0 392 114 453 309l-173 49c-33-115-133-197-280-197-223 0-326 196-326 419 0 220 103 415 326 415 150 0 252-85 285-206l172 49C1010-95 832 24 613 24" id="ab"/><path d="M338-670V0H158v-1490h180v566c73-149 190-208 336-208 226 0 379 139 379 422V0H872v-695c0-172-96-275-252-275-161 0-282 109-282 300" id="ac"/><g id="f"><use transform="matrix(0.010850694444444444,0,0,0.010850694444444444,0,0)" xlink:href="#X"/><use transform="matrix(0.010850694444444444,0,0,0.010850694444444444,12.565104166666666,0)" xlink:href="#Y"/><use transform="matrix(0.010850694444444444,0,0,0.010850694444444444,25.04340277777778,0)" xlink:href="#Z"/><use transform="matrix(0.010850694444444444,0,0,0.010850694444444444,38.18359375,0)" xlink:href="#aa"/><use transform="matrix(0.010850694444444444,0,0,0.010850694444444444,51.31293402777778,0)" xlink:href="#ab"/><use transform="matrix(0.010850694444444444,0,0,0.010850694444444444,64.00824652777777,0)" xlink:href="#ac"/></g><path d="M158 0v-1490h180v865h22l478-493h223L593-638 1096 0H865L456-523 338-412V0H158" id="ad"/><path d="M628 24c-324 0-524-230-524-574 0-343 198-582 503-582 237 0 487 146 487 559v75H286c9 234 145 362 343 362 132 0 231-58 273-172l174 48C1024-91 857 24 628 24zM287-650h624c-17-190-120-322-304-322-192 0-309 151-320 322" id="ae"/><path d="M158 0v-1118h174v172h12c41-113 157-188 290-188 26 0 70 2 91 3v181c-11-2-60-10-108-10-161 0-279 109-279 260V0H158" id="af"/><path d="M338-1490V0H158v-1490h180" id="ag"/><g id="g"><use transform="matrix(0.010850694444444444,0,0,0.010850694444444444,0,0)" xlink:href="#ad"/><use transform="matrix(0.010850694444444444,0,0,0.010850694444444444,11.69704861111111,0)" xlink:href="#ae"/><use transform="matrix(0.010850694444444444,0,0,0.010850694444444444,24.65277777777778,0)" xlink:href="#af"/><use transform="matrix(0.010850694444444444,0,0,0.010850694444444444,33.365885416666664,0)" xlink:href="#aa"/><use transform="matrix(0.010850694444444444,0,0,0.010850694444444444,46.49522569444444,0)" xlink:href="#ae"/><use transform="matrix(0.010850694444444444,0,0,0.010850694444444444,59.45095486111111,0)" xlink:href="#ag"/></g><path d="M635 20c-292 0-500-160-510-396h192c11 142 145 229 315 229 187 0 323-105 323-260 0-161-125-274-346-274H488v-165h121c174 0 294-100 294-254 0-148-104-245-266-245-152 0-291 85-297 230H157c8-234 222-395 484-395 278 0 448 188 448 400 0 168-95 291-247 336v12c190 31 301 169 301 357 0 244-216 425-508 425" id="ah"/><path d="M295 13c-75 0-135-60-135-135s60-135 135-135 135 60 135 135S370 13 295 13zm0-809c-75 0-135-60-135-135s60-135 135-135 135 60 135 135-60 135-135 135" id="ai"/><g id="h"><use transform="matrix(0.010850694444444444,0,0,0.010850694444444444,0,0)" xlink:href="#ah"/><use transform="matrix(0.010850694444444444,0,0,0.010850694444444444,13.726128472222221,0)" xlink:href="#ai"/></g><path d="M783 20c-382 0-661-292-661-764 0-473 279-766 661-766 302 0 548 182 601 489h-190c-42-204-217-313-411-313-268 0-476 208-476 590 0 381 209 588 476 588 195 0 369-110 411-313h190c-52 303-296 489-601 489" id="aj"/><path d="M613 24c-304 0-509-231-509-576 0-350 205-580 509-580 305 0 511 230 511 580 0 345-206 576-511 576zm0-161c226 0 329-195 329-415 0-222-103-419-329-419-223 0-326 196-326 419 0 220 103 415 326 415" id="ak"/><path d="M158 418v-1536h174v179h20c37-59 106-193 324-193 279 0 474 222 474 576 0 356-194 580-473 580-213 0-288-135-325-197h-14v591H158zm492-555c209 0 317-186 317-421 0-232-105-413-317-413-206 0-314 166-314 413 0 249 111 421 314 421" id="al"/><path d="M598-1118v154H368v674c0 100 37 144 132 144 23 0 62-6 92-12L629-6c-37 13-88 20-134 20-193 0-307-107-307-290v-688H20v-154h168v-266h180v266h230" id="am"/><g id="i"><use transform="matrix(0.010850694444444444,0,0,0.010850694444444444,0,0)" xlink:href="#aj"/><use transform="matrix(0.010850694444444444,0,0,0.010850694444444444,16.23263888888889,0)" xlink:href="#ak"/><use transform="matrix(0.010850694444444444,0,0,0.010850694444444444,29.557291666666664,0)" xlink:href="#V"/><use transform="matrix(0.010850694444444444,0,0,0.010850694444444444,49.0234375,0)" xlink:href="#al"/><use transform="matrix(0.010850694444444444,0,0,0.010850694444444444,62.63020833333333,0)" xlink:href="#Z"/><use transform="matrix(0.010850694444444444,0,0,0.010850694444444444,75.77039930555554,0)" xlink:href="#am"/><use transform="matrix(0.010850694444444444,0,0,0.010850694444444444,82.82335069444443,0)" xlink:href="#ae"/></g><path d="M577 24c-279 0-473-224-473-580 0-354 195-576 474-576 218 0 287 134 324 193h14v-551h180V0H922v-173h-20C865-111 790 24 577 24zm27-161c203 0 314-172 314-421 0-247-108-413-314-413-212 0-317 181-317 413 0 235 108 421 317 421" id="an"/><g id="j"><use transform="matrix(0.010850694444444444,0,0,0.010850694444444444,0,0)" xlink:href="#an"/><use transform="matrix(0.010850694444444444,0,0,0.010850694444444444,13.606770833333332,0)" xlink:href="#S"/></g><path d="M538 24C308 24 148-78 108-271l171-41c32 123 123 178 257 178 156 0 256-77 256-169 0-77-54-128-164-154l-186-44c-203-48-300-148-300-305 0-192 176-326 414-326 230 0 351 112 402 269l-163 42c-31-80-94-158-238-158-133 0-233 69-233 162 0 83 57 129 188 160l169 40c203 48 298 149 298 302 0 196-179 339-441 339" id="ao"/><path d="M158 0v-1118h180V0H158zm91-1301c-68 0-125-53-125-119s57-119 125-119c69 0 126 53 126 119s-57 119-126 119" id="ap"/><g id="l"><use transform="matrix(0.010850694444444444,0,0,0.010850694444444444,0,0)" xlink:href="#af"/><use transform="matrix(0.010850694444444444,0,0,0.010850694444444444,7.996961805555555,0)" xlink:href="#ae"/><use transform="matrix(0.010850694444444444,0,0,0.010850694444444444,20.95269097222222,0)" xlink:href="#ao"/><use transform="matrix(0.010850694444444444,0,0,0.010850694444444444,32.682291666666664,0)" xlink:href="#ap"/><use transform="matrix(0.010850694444444444,0,0,0.010850694444444444,38.06423611111111,0)" xlink:href="#an"/><use transform="matrix(0.010850694444444444,0,0,0.010850694444444444,51.67100694444444,0)" xlink:href="#ae"/><use transform="matrix(0.010850694444444444,0,0,0.010850694444444444,64.62673611111111,0)" xlink:href="#aa"/><use transform="matrix(0.010850694444444444,0,0,0.010850694444444444,77.75607638888889,0)" xlink:href="#am"/></g><g id="m"><use transform="matrix(0.010850694444444444,0,0,0.010850694444444444,0,0)" xlink:href="#am"/><use transform="matrix(0.010850694444444444,0,0,0.010850694444444444,7.269965277777778,0)" xlink:href="#ap"/><use transform="matrix(0.010850694444444444,0,0,0.010850694444444444,12.651909722222221,0)" xlink:href="#ag"/><use transform="matrix(0.010850694444444444,0,0,0.010850694444444444,18.033854166666664,0)" xlink:href="#ae"/><use transform="matrix(0.010850694444444444,0,0,0.010850694444444444,30.98958333333333,0)" xlink:href="#ao"/><use transform="matrix(0.010850694444444444,0,0,0.010850694444444444,42.71918402777777,0)" xlink:href="#ai"/></g><path d="M128 359l88-567h206L266 359H128" id="aq"/><g id="n"><use transform="matrix(0.010850694444444444,0,0,0.010850694444444444,0,0)" xlink:href="#S"/><use transform="matrix(0.010850694444444444,0,0,0.010850694444444444,16.9921875,0)" xlink:href="#U"/><use transform="matrix(0.010850694444444444,0,0,0.010850694444444444,25.09765625,0)" xlink:href="#V"/><use transform="matrix(0.010850694444444444,0,0,0.010850694444444444,44.56380208333333,0)" xlink:href="#W"/><use transform="matrix(0.010850694444444444,0,0,0.010850694444444444,52.66927083333333,0)" xlink:href="#aq"/></g><path d="M784 20c-382 0-662-292-662-764 0-473 280-766 662-766s660 293 660 766c0 472-278 764-660 764zm0-176c266 0 475-207 475-588 0-383-209-590-475-590-268 0-477 208-477 590 0 380 209 588 477 588" id="ar"/><g id="o"><use transform="matrix(0.010850694444444444,0,0,0.010850694444444444,0,0)" xlink:href="#an"/><use transform="matrix(0.010850694444444444,0,0,0.010850694444444444,13.606770833333332,0)" xlink:href="#ar"/><use transform="matrix(0.010850694444444444,0,0,0.010850694444444444,30.598958333333332,0)" xlink:href="#U"/><use transform="matrix(0.010850694444444444,0,0,0.010850694444444444,38.70442708333333,0)" xlink:href="#V"/><use transform="matrix(0.010850694444444444,0,0,0.010850694444444444,58.17057291666666,0)" xlink:href="#W"/><use transform="matrix(0.010850694444444444,0,0,0.010850694444444444,66.27604166666666,0)" xlink:href="#aq"/></g><path d="M180 0v-1490h908v168H370v486h669v168H370v500h727V0H180" id="as"/><g id="p"><use transform="matrix(0.010850694444444444,0,0,0.010850694444444444,0,0)" xlink:href="#X"/><use transform="matrix(0.010850694444444444,0,0,0.010850694444444444,12.565104166666666,0)" xlink:href="#R"/><use transform="matrix(0.010850694444444444,0,0,0.010850694444444444,26.822916666666664,0)" xlink:href="#as"/><use transform="matrix(0.010850694444444444,0,0,0.010850694444444444,40.18012152777777,0)" xlink:href="#U"/><use transform="matrix(0.010850694444444444,0,0,0.010850694444444444,48.28559027777778,0)" xlink:href="#V"/><use transform="matrix(0.010850694444444444,0,0,0.010850694444444444,67.7517361111111,0)" xlink:href="#W"/><use transform="matrix(0.010850694444444444,0,0,0.010850694444444444,75.8572048611111,0)" xlink:href="#aq"/></g><path d="M645 0H180v-1490h484c435 0 692 280 692 742 0 466-257 748-711 748zM370-168h263c363 0 539-218 539-580 0-358-176-574-521-574H370v1154" id="at"/><g id="q"><use transform="matrix(0.010850694444444444,0,0,0.010850694444444444,0,0)" xlink:href="#at"/><use transform="matrix(0.010850694444444444,0,0,0.010850694444444444,16.03732638888889,0)" xlink:href="#ae"/><use transform="matrix(0.010850694444444444,0,0,0.010850694444444444,28.99305555555556,0)" xlink:href="#ag"/><use transform="matrix(0.010850694444444444,0,0,0.010850694444444444,34.700520833333336,0)" xlink:href="#am"/><use transform="matrix(0.010850694444444444,0,0,0.010850694444444444,42.07899305555556,0)" xlink:href="#Y"/><use transform="matrix(0.010850694444444444,0,0,0.010850694444444444,54.55729166666667,0)" xlink:href="#U"/><use transform="matrix(0.010850694444444444,0,0,0.010850694444444444,62.66276041666667,0)" xlink:href="#V"/><use transform="matrix(0.010850694444444444,0,0,0.010850694444444444,82.12890625,0)" xlink:href="#W"/><use transform="matrix(0.010850694444444444,0,0,0.010850694444444444,90.234375,0)" xlink:href="#aq"/></g><g id="r"><use transform="matrix(0.010850694444444444,0,0,0.010850694444444444,0,0)" xlink:href="#an"/><use transform="matrix(0.010850694444444444,0,0,0.010850694444444444,13.606770833333332,0)" xlink:href="#S"/><use transform="matrix(0.010850694444444444,0,0,0.010850694444444444,30.598958333333332,0)" xlink:href="#U"/><use transform="matrix(0.010850694444444444,0,0,0.010850694444444444,38.70442708333333,0)" xlink:href="#V"/><use transform="matrix(0.010850694444444444,0,0,0.010850694444444444,58.17057291666666,0)" xlink:href="#W"/></g><g id="s"><use transform="matrix(0.010850694444444444,0,0,0.010850694444444444,0,0)" xlink:href="#T"/><use transform="matrix(0.010850694444444444,0,0,0.010850694444444444,14.930555555555555,0)" xlink:href="#U"/><use transform="matrix(0.010850694444444444,0,0,0.010850694444444444,23.036024305555554,0)" xlink:href="#aa"/><use transform="matrix(0.010850694444444444,0,0,0.010850694444444444,36.165364583333336,0)" xlink:href="#W"/></g><g id="t"><use transform="matrix(0.010850694444444444,0,0,0.010850694444444444,0,0)" xlink:href="#R"/><use transform="matrix(0.010850694444444444,0,0,0.010850694444444444,14.2578125,0)" xlink:href="#U"/><use transform="matrix(0.010850694444444444,0,0,0.010850694444444444,22.36328125,0)" xlink:href="#V"/><use transform="matrix(0.010850694444444444,0,0,0.010850694444444444,41.82942708333333,0)" xlink:href="#W"/><use transform="matrix(0.010850694444444444,0,0,0.010850694444444444,49.93489583333333,0)" xlink:href="#U"/><use transform="matrix(0.010850694444444444,0,0,0.010850694444444444,58.04036458333333,0)" xlink:href="#aa"/><use transform="matrix(0.010850694444444444,0,0,0.010850694444444444,71.1697048611111,0)" xlink:href="#W"/></g><g id="u"><use transform="matrix(0.010850694444444444,0,0,0.010850694444444444,0,0)" xlink:href="#Q"/><use transform="matrix(0.010850694444444444,0,0,0.010850694444444444,14.192708333333332,0)" xlink:href="#U"/><use transform="matrix(0.010850694444444444,0,0,0.010850694444444444,22.298177083333332,0)" xlink:href="#V"/><use transform="matrix(0.010850694444444444,0,0,0.010850694444444444,41.764322916666664,0)" xlink:href="#W"/><use transform="matrix(0.010850694444444444,0,0,0.010850694444444444,49.869791666666664,0)" xlink:href="#U"/><use transform="matrix(0.010850694444444444,0,0,0.010850694444444444,57.975260416666664,0)" xlink:href="#aa"/><use transform="matrix(0.010850694444444444,0,0,0.010850694444444444,71.10460069444444,0)" xlink:href="#W"/></g><path d="M600 0L52-1490h200c166 485 304 806 458 1336 156-533 285-846 449-1336h202L819 0H600" id="au"/><use transform="matrix(0.010850694444444444,0,0,0.010850694444444444,0,0)" xlink:href="#au" id="v"/><radialGradient gradientUnits="userSpaceOnUse" id="w" fx="894.24" fy="1010.37" cx="894.24" cy="1010.37" r="197.87"><stop offset="0%" stop-color="#fff"/><stop offset="59.79%" stop-color="#b8f5ed"/><stop offset="100%" stop-color="#7cecdd"/></radialGradient><g id="x"><use transform="matrix(0.010850694444444444,0,0,0.010850694444444444,0,0)" xlink:href="#an"/><use transform="matrix(0.010850694444444444,0,0,0.010850694444444444,13.606770833333332,0)" xlink:href="#Q"/></g><radialGradient gradientUnits="userSpaceOnUse" id="y" fx="740.73" fy="880.43" cx="740.73" cy="880.43" r="44.35"><stop offset="0%" stop-color="#fff"/><stop offset="59.79%" stop-color="#b8f5ed"/><stop offset="100%" stop-color="#7cecdd"/></radialGradient><g id="z"><use transform="matrix(0.010850694444444444,0,0,0.010850694444444444,0,0)" xlink:href="#an"/><use transform="matrix(0.010850694444444444,0,0,0.010850694444444444,13.606770833333332,0)" xlink:href="#Q"/><use transform="matrix(0.010850694444444444,0,0,0.010850694444444444,27.799479166666664,0)" xlink:href="#U"/><use transform="matrix(0.010850694444444444,0,0,0.010850694444444444,35.904947916666664,0)" xlink:href="#V"/><use transform="matrix(0.010850694444444444,0,0,0.010850694444444444,55.37109375,0)" xlink:href="#W"/><use transform="matrix(0.010850694444444444,0,0,0.010850694444444444,63.4765625,0)" xlink:href="#U"/><use transform="matrix(0.010850694444444444,0,0,0.010850694444444444,71.58203125,0)" xlink:href="#aa"/><use transform="matrix(0.010850694444444444,0,0,0.010850694444444444,84.71137152777777,0)" xlink:href="#W"/></g><radialGradient gradientUnits="userSpaceOnUse" id="A" fx="540.61" fy="1010.37" cx="540.61" cy="1010.37" r="197.87"><stop offset="0%" stop-color="#fff"/><stop offset="47.4%" stop-color="#f4d9ff"/><stop offset="100%" stop-color="#e194ff"/></radialGradient><g id="B"><use transform="matrix(0.010850694444444444,0,0,0.010850694444444444,0,0)" xlink:href="#an"/><use transform="matrix(0.010850694444444444,0,0,0.010850694444444444,13.606770833333332,0)" xlink:href="#ar"/></g><radialGradient gradientUnits="userSpaceOnUse" id="C" fx="540.61" fy="880.43" cx="540.61" cy="880.43" r="59.33"><stop offset="0%" stop-color="#fff"/><stop offset="49.85%" stop-color="#f2d3ff"/><stop offset="100%" stop-color="#dd8fff"/></radialGradient><g id="D"><use transform="matrix(0.010850694444444444,0,0,0.010850694444444444,0,0)" xlink:href="#an"/><use transform="matrix(0.010850694444444444,0,0,0.010850694444444444,13.606770833333332,0)" xlink:href="#ar"/><use transform="matrix(0.010850694444444444,0,0,0.010850694444444444,30.598958333333332,0)" xlink:href="#U"/><use transform="matrix(0.010850694444444444,0,0,0.010850694444444444,38.70442708333333,0)" xlink:href="#V"/><use transform="matrix(0.010850694444444444,0,0,0.010850694444444444,58.17057291666666,0)" xlink:href="#W"/></g><g id="E"><use transform="matrix(0.010850694444444444,0,0,0.010850694444444444,0,0)" xlink:href="#au"/><use transform="matrix(0.010850694444444444,0,0,0.010850694444444444,15.33203125,0)" xlink:href="#U"/><use transform="matrix(0.010850694444444444,0,0,0.010850694444444444,23.4375,0)" xlink:href="#aa"/><use transform="matrix(0.010850694444444444,0,0,0.010850694444444444,36.56684027777778,0)" xlink:href="#W"/></g><path d="M135 0v-1490h581c339 0 533 210 533 503 0 295-197 500-540 500H440V0H135zm305-733h220c186 0 274-104 274-254s-88-251-275-251H440v505" id="av"/><path d="M182 279v-1860h488v228H471V51h199v228H182" id="aw"/><path d="M128 0v-1118h278l12 217c60-163 185-234 319-234 143 0 236 81 288 251 63-172 205-251 359-251 205 0 357 138 357 381V0h-301v-697c0-126-76-187-177-187-114 0-184 79-184 196V0H789v-705c0-109-72-179-174-179-106 0-187 74-187 208V0H128" id="ax"/><path d="M102 279V51h199v-1404H102v-228h489V279H102" id="ay"/><path d="M428-647V0H128v-1118h283l4 231c63-156 176-245 348-245 232 0 384 159 384 421V0H847v-659c0-139-76-222-202-222-128 0-217 86-217 234" id="az"/><path d="M197-230v-252h997v252H197zm0-479v-251h997v251H197" id="aA"/><path d="M633 22C291 22 81-200 81-553c0-345 210-579 537-579 292 0 525 185 525 567v84H378c7 183 109 277 260 277 105 0 184-46 216-132l272 51C1071-99 893 22 633 22zM380-669h474c-15-146-94-237-233-237-143 0-229 99-241 237" id="aB"/><path d="M42 0l360-574-338-544h324c72 124 151 261 209 394 58-134 140-271 215-394h318L785-570 1146 0H824c-79-136-169-280-234-425C528-278 439-134 360 0H42" id="aC"/><path d="M128 418v-1536h295v188h14c41-89 129-202 319-202 248 0 453 193 453 575 0 372-197 576-455 576-183 0-275-108-317-198h-9v597H128zm534-640c156 0 240-139 240-336 0-196-83-334-240-334-154 0-241 131-241 334 0 202 88 336 241 336" id="aD"/><path d="M169-607c0-330 107-732 258-974h279c-145 311-231 674-231 974 0 262 67 512 231 886H427C258-1 169-307 169-607" id="aE"/><path d="M681 22C323 22 94-145 85-462h297c10 151 131 226 296 226 163 0 271-77 271-190 0-102-95-149-257-189l-164-41c-252-61-403-188-403-405 0-269 236-449 560-449 330 0 546 183 551 445H941c-11-119-106-188-259-188-156 0-244 72-244 172-3 156 226 185 373 221 250 61 445 186 445 436 0 271-213 446-575 446" id="aF"/><path d="M818-733v240H140v-240h678" id="aG"/><path d="M135 0v-1490h305v1237h643V0H135" id="aH"/><path d="M135 0v-1490h997v253H440v360h640v249H440v375h694V0H135" id="aI"/><path d="M67 279c166-379 230-627 230-886 0-300-86-663-230-974h278c151 241 258 644 258 974 0 302-90 608-258 886H67" id="aJ"/><g id="F"><use transform="matrix(0.008680555555555556,0,0,0.008680555555555556,0,0)" xlink:href="#av"/><use transform="matrix(0.008680555555555556,0,0,0.008680555555555556,11.519097222222223,0)" xlink:href="#aw"/><use transform="matrix(0.008680555555555556,0,0,0.008680555555555556,18.541666666666668,0)" xlink:href="#ax"/><use transform="matrix(0.008680555555555556,0,0,0.008680555555555556,34.765625,0)" xlink:href="#ay"/><use transform="matrix(0.008680555555555556,0,0,0.008680555555555556,41.467013888888886,0)" xlink:href="#aw"/><use transform="matrix(0.008680555555555556,0,0,0.008680555555555556,48.48958333333333,0)" xlink:href="#az"/><use transform="matrix(0.008680555555555556,0,0,0.008680555555555556,59.557291666666664,0)" xlink:href="#ay"/><use transform="matrix(0.008680555555555556,0,0,0.008680555555555556,66.25868055555556,0)" xlink:href="#aA"/><use transform="matrix(0.008680555555555556,0,0,0.008680555555555556,78.32465277777779,0)" xlink:href="#aB"/><use transform="matrix(0.008680555555555556,0,0,0.008680555555555556,88.5590277777778,0)" xlink:href="#aC"/><use transform="matrix(0.008680555555555556,0,0,0.008680555555555556,98.8715277777778,0)" xlink:href="#aD"/><use transform="matrix(0.008680555555555556,0,0,0.008680555555555556,110.07812500000001,0)" xlink:href="#aE"/><use transform="matrix(0.008680555555555556,0,0,0.008680555555555556,116.77951388888891,0)" xlink:href="#aF"/><use transform="matrix(0.008680555555555556,0,0,0.008680555555555556,128.4201388888889,0)" xlink:href="#aw"/><use transform="matrix(0.008680555555555556,0,0,0.008680555555555556,135.44270833333334,0)" xlink:href="#ax"/><use transform="matrix(0.008680555555555556,0,0,0.008680555555555556,151.66666666666669,0)" xlink:href="#ay"/><use transform="matrix(0.008680555555555556,0,0,0.008680555555555556,158.36805555555557,0)" xlink:href="#aw"/><use transform="matrix(0.008680555555555556,0,0,0.008680555555555556,165.390625,0)" xlink:href="#az"/><use transform="matrix(0.008680555555555556,0,0,0.008680555555555556,176.45833333333334,0)" xlink:href="#ay"/><use transform="matrix(0.008680555555555556,0,0,0.008680555555555556,183.15972222222223,0)" xlink:href="#aG"/><use transform="matrix(0.008680555555555556,0,0,0.008680555555555556,191.47569444444446,0)" xlink:href="#aH"/><use transform="matrix(0.008680555555555556,0,0,0.008680555555555556,201.5277777777778,0)" xlink:href="#aF"/><use transform="matrix(0.008680555555555556,0,0,0.008680555555555556,213.1684027777778,0)" xlink:href="#aI"/><use transform="matrix(0.008680555555555556,0,0,0.008680555555555556,223.96701388888889,0)" xlink:href="#aw"/><use transform="matrix(0.008680555555555556,0,0,0.008680555555555556,230.98958333333334,0)" xlink:href="#ax"/><use transform="matrix(0.008680555555555556,0,0,0.008680555555555556,247.21354166666669,0)" xlink:href="#ay"/><use transform="matrix(0.008680555555555556,0,0,0.008680555555555556,253.91493055555557,0)" xlink:href="#aJ"/></g><g id="G"><use transform="matrix(0.010850694444444444,0,0,0.010850694444444444,0,0)" xlink:href="#at"/><use transform="matrix(0.010850694444444444,0,0,0.010850694444444444,16.03732638888889,0)" xlink:href="#ae"/><use transform="matrix(0.010850694444444444,0,0,0.010850694444444444,28.99305555555556,0)" xlink:href="#ag"/><use transform="matrix(0.010850694444444444,0,0,0.010850694444444444,34.700520833333336,0)" xlink:href="#am"/><use transform="matrix(0.010850694444444444,0,0,0.010850694444444444,42.07899305555556,0)" xlink:href="#Y"/><use transform="matrix(0.010850694444444444,0,0,0.010850694444444444,54.55729166666667,0)" xlink:href="#U"/><use transform="matrix(0.010850694444444444,0,0,0.010850694444444444,62.66276041666667,0)" xlink:href="#V"/><use transform="matrix(0.010850694444444444,0,0,0.010850694444444444,82.12890625,0)" xlink:href="#W"/></g><radialGradient gradientUnits="userSpaceOnUse" id="H" fx="894.24" fy="1505.35" cx="894.24" cy="1505.35" r="197.87"><stop offset="0%" stop-color="#fff"/><stop offset="56.66%" stop-color="#c3f7c8"/><stop offset="100%" stop-color="#85ef90"/></radialGradient><g id="I"><use transform="matrix(0.010850694444444444,0,0,0.010850694444444444,0,0)" xlink:href="#an"/><use transform="matrix(0.010850694444444444,0,0,0.010850694444444444,13.606770833333332,0)" xlink:href="#R"/></g><radialGradient gradientUnits="userSpaceOnUse" id="J" fx="740.73" fy="1375.41" cx="740.73" cy="1375.41" r="44.35"><stop offset="0%" stop-color="#fff"/><stop offset="56.66%" stop-color="#c3f7c8"/><stop offset="100%" stop-color="#85ef90"/></radialGradient><g id="K"><use transform="matrix(0.010850694444444444,0,0,0.010850694444444444,0,0)" xlink:href="#an"/><use transform="matrix(0.010850694444444444,0,0,0.010850694444444444,13.606770833333332,0)" xlink:href="#R"/><use transform="matrix(0.010850694444444444,0,0,0.010850694444444444,27.864583333333332,0)" xlink:href="#U"/><use transform="matrix(0.010850694444444444,0,0,0.010850694444444444,35.97005208333333,0)" xlink:href="#V"/><use transform="matrix(0.010850694444444444,0,0,0.010850694444444444,55.43619791666666,0)" xlink:href="#W"/><use transform="matrix(0.010850694444444444,0,0,0.010850694444444444,63.54166666666666,0)" xlink:href="#U"/><use transform="matrix(0.010850694444444444,0,0,0.010850694444444444,71.64713541666666,0)" xlink:href="#aa"/><use transform="matrix(0.010850694444444444,0,0,0.010850694444444444,84.77647569444443,0)" xlink:href="#W"/></g><radialGradient gradientUnits="userSpaceOnUse" id="L" fx="1401.77" fy="1010.37" cx="1401.77" cy="1010.37" r="197.87"><stop offset="0%" stop-color="#fff"/><stop offset="62.47%" stop-color="#fff7a1"/><stop offset="100%" stop-color="#fff260"/></radialGradient><path d="M226-283v-166h904v166H226zm0-434v-166h904v166H226" id="aK"/><path d="M1044 395c-595 0-922-332-922-920 0-569 336-913 901-913 548 0 833 392 833 798 0 285-36 610-344 610-104 0-258-44-276-168h-8c-35 86-122 161-273 161-266 0-403-216-403-498 0-268 174-469 413-469 128 0 216 57 252 108h10v-84h158v659c0 80 45 150 131 150 146 0 181-145 181-471 0-331-218-652-680-652-458 0-728 289-728 774 0 492 266 770 762 770 159 0 323-57 382-77l43 140c-92 39-281 82-432 82zm-82-585c193 0 271-116 271-353 0-239-92-310-266-310-164 0-260 143-260 310 0 185 69 353 255 353" id="aL"/><g id="M"><use transform="matrix(0.010850694444444444,0,0,0.010850694444444444,0,0)" xlink:href="#an"/><use transform="matrix(0.010850694444444444,0,0,0.010850694444444444,13.606770833333332,0)" xlink:href="#S"/><use transform="matrix(0.010850694444444444,0,0,0.010850694444444444,30.598958333333332,0)" xlink:href="#aK"/><use transform="matrix(0.010850694444444444,0,0,0.010850694444444444,45.30164930555556,0)" xlink:href="#an"/><use transform="matrix(0.010850694444444444,0,0,0.010850694444444444,58.908420138888886,0)" xlink:href="#R"/><use transform="matrix(0.010850694444444444,0,0,0.010850694444444444,73.16623263888889,0)" xlink:href="#aL"/><use transform="matrix(0.010850694444444444,0,0,0.010850694444444444,94.62890625,0)" xlink:href="#T"/></g><path d="M692-1560L212 224H46l480-1784h166" id="aM"/><path d="M1096 418H916v-591h-14C865-111 790 24 577 24c-279 0-473-224-473-580 0-354 195-576 474-576 218 0 287 134 324 193h20v-179h174V418zM604-137c203 0 314-172 314-421 0-247-108-413-314-413-212 0-317 181-317 413 0 235 108 421 317 421" id="aN"/><path d="M218-607c0-325 108-727 258-974h175c-155 315-250 682-250 974 0 265 78 531 250 886H476C306-10 218-315 218-607" id="aO"/><path d="M96 279C273-86 346-350 346-607c0-292-95-659-250-974h175c150 246 258 650 258 974 0 297-91 602-258 886H96" id="aP"/><g id="N"><use transform="matrix(0.010850694444444444,0,0,0.010850694444444444,0,0)" xlink:href="#aM"/><use transform="matrix(0.010850694444444444,0,0,0.010850694444444444,8.0078125,0)" xlink:href="#ao"/><use transform="matrix(0.010850694444444444,0,0,0.010850694444444444,19.737413194444443,0)" xlink:href="#aN"/><use transform="matrix(0.010850694444444444,0,0,0.010850694444444444,33.34418402777777,0)" xlink:href="#af"/><use transform="matrix(0.010850694444444444,0,0,0.010850694444444444,42.05729166666666,0)" xlink:href="#am"/><use transform="matrix(0.010850694444444444,0,0,0.010850694444444444,49.327256944444436,0)" xlink:href="#aO"/><use transform="matrix(0.010850694444444444,0,0,0.010850694444444444,57.432725694444436,0)" xlink:href="#at"/><use transform="matrix(0.010850694444444444,0,0,0.010850694444444444,73.47005208333333,0)" xlink:href="#aP"/></g><radialGradient gradientUnits="userSpaceOnUse" id="O" fx="1401.77" fy="887.3" cx="1401.77" cy="887.3" r="59.33"><stop offset="0%" stop-color="#fff"/><stop offset="62.47%" stop-color="#fff7a1"/><stop offset="100%" stop-color="#fff260"/></radialGradient><g id="P"><use transform="matrix(0.010850694444444444,0,0,0.010850694444444444,0,0)" xlink:href="#an"/><use transform="matrix(0.010850694444444444,0,0,0.010850694444444444,13.606770833333332,0)" xlink:href="#S"/><use transform="matrix(0.010850694444444444,0,0,0.010850694444444444,30.598958333333332,0)" xlink:href="#U"/><use transform="matrix(0.010850694444444444,0,0,0.010850694444444444,38.70442708333333,0)" xlink:href="#V"/><use transform="matrix(0.010850694444444444,0,0,0.010850694444444444,58.17057291666666,0)" xlink:href="#W"/></g></defs></g></svg>